<svg width="25" height="25" viewBox="0 0 25 25" fill="none" xmlns="http://www.w3.org/2000/svg">
<path fill-rule="evenodd" clip-rule="evenodd" d="M12.4971 2.30153C6.49946 2.30153 1.63599 7.16398 1.63599 13.1626C1.63599 17.9613 4.74806 22.0325 9.06349 23.4687C9.60624 23.5692 9.80559 23.233 9.80559 22.9462C9.80559 22.6873 9.79561 21.8316 9.79089 20.924C6.76931 21.5811 6.13172 19.6426 6.13172 19.6426C5.63761 18.3872 4.92583 18.0533 4.92583 18.0533C3.9403 17.3792 5.00012 17.3931 5.00012 17.3931C6.09064 17.4697 6.66501 18.5126 6.66501 18.5126C7.63369 20.1729 9.20579 19.6928 9.82567 19.4153C9.92316 18.7134 10.2045 18.2341 10.5152 17.9629C8.1028 17.6884 5.56673 16.757 5.56673 12.5953C5.56673 11.4096 5.99106 10.4407 6.6859 9.68005C6.57314 9.40638 6.20133 8.30179 6.79113 6.80566C6.79113 6.80566 7.70322 6.51393 9.77856 7.91913C10.645 7.67844 11.5742 7.55776 12.4972 7.55357C13.4201 7.55776 14.35 7.67844 15.2179 7.91913C17.291 6.51393 18.2018 6.80566 18.2018 6.80566C18.793 8.30179 18.4211 9.40638 18.3084 9.68005C19.0048 10.4407 19.4262 11.4096 19.4262 12.5953C19.4262 16.767 16.8853 17.6853 14.4667 17.9543C14.8563 18.2914 15.2033 18.9523 15.2033 19.9656C15.2033 21.4188 15.1909 22.5884 15.1909 22.9462C15.1909 23.2353 15.3864 23.574 15.9368 23.4674C20.2501 22.0296 23.3582 17.9598 23.3582 13.1626C23.3582 7.16398 18.4954 2.30153 12.4971 2.30153Z" fill="black"/>
<path d="M5.74963 17.8956C5.72573 17.9497 5.64074 17.9659 5.56344 17.9288C5.48459 17.8934 5.44051 17.8198 5.46595 17.7657C5.48932 17.7101 5.5743 17.6947 5.65301 17.7317C5.7319 17.7672 5.77689 17.8415 5.74963 17.8956Z" fill="black"/>
<path d="M6.18969 18.3864C6.13792 18.4343 6.03651 18.412 5.96781 18.3362C5.89668 18.2604 5.88354 18.159 5.9361 18.1104C5.9895 18.0625 6.08771 18.0849 6.1588 18.1607C6.22997 18.2373 6.2438 18.3377 6.18969 18.3864Z" fill="black"/>
<path d="M6.61795 19.0118C6.55136 19.0582 6.44247 19.0148 6.37518 18.9182C6.30859 18.8216 6.30861 18.7057 6.37674 18.6593C6.44403 18.6129 6.55138 18.6547 6.61951 18.7505C6.68592 18.8487 6.6859 18.9646 6.61795 19.0118Z" fill="black"/>
<path d="M7.20445 19.6162C7.14487 19.6819 7.01803 19.6641 6.92534 19.5746C6.83031 19.4871 6.80396 19.3628 6.86349 19.2971C6.92395 19.2314 7.05146 19.2498 7.14486 19.3387C7.23918 19.4261 7.26782 19.5512 7.20445 19.6162Z" fill="black"/>
<path d="M8.01385 19.9671C7.98752 20.0521 7.86548 20.0908 7.7425 20.0546C7.61955 20.0173 7.53931 19.9177 7.56405 19.8318C7.58949 19.7462 7.71223 19.706 7.83605 19.7446C7.95886 19.7816 8.03929 19.8805 8.01385 19.9671Z" fill="black"/>
<path d="M8.9029 20.0321C8.90585 20.1217 8.80153 20.196 8.67245 20.1976C8.54263 20.2006 8.4374 20.1281 8.43604 20.0399C8.43604 19.9494 8.53801 19.876 8.66788 19.8737C8.79695 19.8712 8.9029 19.9432 8.9029 20.0321Z" fill="black"/>
<path d="M9.73001 19.8914C9.74545 19.9787 9.65563 20.0685 9.5274 20.0924C9.40132 20.1156 9.28472 20.0615 9.26858 19.9748C9.25297 19.8853 9.34424 19.7955 9.47023 19.7723C9.59864 19.75 9.71365 19.8025 9.73001 19.8914Z" fill="black"/>
</svg>
